<svg width="48" height="48" viewBox="0 0 48 48" fill="none" xmlns="http://www.w3.org/2000/svg">
<path d="M14.2701 22.378L6.66059 8.76103C5.78561 7.19529 5.34812 6.41243 5.42185 5.77145C5.48618 5.21223 5.78319 4.706 6.23999 4.37704C6.76355 4 7.66037 4 9.454 4H13.9236C14.5902 4 14.9235 4 15.2225 4.09627C15.487 4.18145 15.7309 4.32083 15.9386 4.50552C16.1733 4.71424 16.3424 5.00141 16.6808 5.57575L24 18L31.3192 5.57575C31.6576 5.00141 31.8267 4.71424 32.0614 4.50552C32.2691 4.32083 32.513 4.18145 32.7775 4.09627C33.0765 4 33.4098 4 34.0764 4H38.546C40.3396 4 41.2364 4 41.76 4.37704C42.2168 4.706 42.5138 5.21223 42.5781 5.77145C42.6519 6.41243 42.2144 7.1953 41.3394 8.76103L33.7299 22.378M21 28L24 26V36M21.5 36H26.5M33.1924 21.8076C38.2692 26.8844 38.2692 35.1156 33.1924 40.1924C28.1156 45.2692 19.8844 45.2692 14.8076 40.1924C9.7308 35.1156 9.7308 26.8844 14.8076 21.8076C19.8844 16.7308 28.1156 16.7308 33.1924 21.8076Z" stroke="#C94277" stroke-width="3" stroke-linecap="round" stroke-linejoin="round"/>
</svg>
