<svg width="36" height="37" viewBox="0 0 36 37" fill="none" xmlns="http://www.w3.org/2000/svg">
<path d="M21.2222 18C21.2222 18.6153 21.0398 19.2168 20.6979 19.7284C20.3561 20.2401 19.8702 20.6388 19.3017 20.8743C18.7332 21.1098 18.1077 21.1714 17.5042 21.0513C16.9007 20.9313 16.3463 20.635 15.9112 20.1999C15.4761 19.7648 15.1798 19.2104 15.0598 18.6069C14.9397 18.0035 15.0013 17.3779 15.2368 16.8094C15.4723 16.2409 15.8711 15.7551 16.3827 15.4132C16.8943 15.0714 17.4958 14.8889 18.1111 14.8889C18.9362 14.8889 19.7276 15.2167 20.311 15.8001C20.8944 16.3836 21.2222 17.1749 21.2222 18ZM18.1111 12.2222C18.7264 12.2222 19.3279 12.0398 19.8396 11.6979C20.3512 11.3561 20.7499 10.8702 20.9854 10.3017C21.2209 9.7332 21.2825 9.10766 21.1624 8.50416C21.0424 7.90067 20.7461 7.34632 20.311 6.91122C19.8759 6.47613 19.3216 6.17982 18.7181 6.05978C18.1146 5.93974 17.489 6.00135 16.9205 6.23682C16.3521 6.47229 15.8662 6.87105 15.5243 7.38267C15.1825 7.89429 15 8.49579 15 9.11111C15 9.93623 15.3278 10.7276 15.9112 11.311C16.4947 11.8944 17.286 12.2222 18.1111 12.2222ZM18.1111 23.7778C17.4958 23.7778 16.8943 23.9602 16.3827 24.3021C15.8711 24.6439 15.4723 25.1298 15.2368 25.6983C15.0013 26.2668 14.9397 26.8923 15.0598 27.4958C15.1798 28.0993 15.4761 28.6537 15.9112 29.0888C16.3463 29.5239 16.9007 29.8202 17.5042 29.9402C18.1077 30.0603 18.7332 29.9987 19.3017 29.7632C19.8702 29.5277 20.3561 29.1289 20.6979 28.6173C21.0398 28.1057 21.2222 27.5042 21.2222 26.8889C21.2222 26.0638 20.8944 25.2724 20.311 24.689C19.7276 24.1056 18.9362 23.7778 18.1111 23.7778Z" fill="#211E1D"/>
</svg>
