<svg width="510" height="307" viewBox="0 0 510 307" fill="none" xmlns="http://www.w3.org/2000/svg">
<g clip-path="url(#clip0_148_369)">
<rect x="1" y="1" width="508" height="304.8" rx="12" fill="#EEEEEE"/>
<path d="M221.433 143.196L227.1 159.513H227.321L232.997 143.196H235.845L228.687 162.9H225.743L218.575 143.196H221.433ZM238.547 162.9V148.122H241.125V162.9H238.547ZM239.855 145.755C239.387 145.755 238.983 145.595 238.643 145.274C238.309 144.953 238.142 144.568 238.142 144.119C238.142 143.677 238.309 143.295 238.643 142.974C238.983 142.654 239.387 142.493 239.855 142.493C240.323 142.493 240.724 142.654 241.058 142.974C241.398 143.295 241.568 143.677 241.568 144.119C241.568 144.568 241.398 144.953 241.058 145.274C240.724 145.595 240.323 145.755 239.855 145.755ZM250.696 163.198C249.483 163.198 248.409 162.89 247.473 162.275C246.536 161.652 245.802 160.771 245.269 159.629C244.737 158.487 244.471 157.127 244.471 155.549C244.471 153.972 244.737 152.615 245.269 151.48C245.802 150.338 246.539 149.462 247.482 148.853C248.425 148.237 249.506 147.929 250.725 147.929C251.667 147.929 252.418 148.087 252.976 148.401C253.534 148.709 253.967 149.065 254.275 149.469C254.583 149.873 254.82 150.213 254.987 150.489H255.17V143.196H257.738V162.9H255.237V160.61H254.987C254.814 160.905 254.57 161.258 254.256 161.669C253.941 162.073 253.499 162.429 252.928 162.736C252.363 163.044 251.619 163.198 250.696 163.198ZM251.167 160.957C252.039 160.957 252.774 160.729 253.37 160.273C253.973 159.812 254.432 159.173 254.746 158.359C255.061 157.538 255.218 156.589 255.218 155.511C255.218 154.446 255.064 153.513 254.756 152.711C254.448 151.909 253.993 151.287 253.39 150.845C252.787 150.396 252.046 150.171 251.167 150.171C250.256 150.171 249.496 150.408 248.887 150.883C248.278 151.351 247.819 151.99 247.511 152.798C247.21 153.6 247.059 154.504 247.059 155.511C247.059 156.531 247.213 157.454 247.521 158.282C247.835 159.103 248.294 159.754 248.897 160.235C249.506 160.716 250.263 160.957 251.167 160.957ZM268.307 163.208C266.864 163.208 265.623 162.894 264.584 162.265C263.545 161.63 262.743 160.745 262.179 159.61C261.621 158.468 261.342 157.137 261.342 155.617C261.342 154.103 261.621 152.769 262.179 151.614C262.743 150.453 263.529 149.549 264.536 148.901C265.549 148.253 266.733 147.929 268.086 147.929C268.888 147.929 269.67 148.064 270.434 148.334C271.203 148.596 271.896 149.02 272.512 149.604C273.134 150.181 273.625 150.941 273.984 151.884C274.349 152.827 274.532 153.978 274.532 155.338V156.329H262.958V154.27H271.963C271.963 153.474 271.803 152.769 271.482 152.153C271.168 151.531 270.719 151.04 270.135 150.681C269.558 150.322 268.878 150.142 268.096 150.142C267.236 150.142 266.492 150.351 265.864 150.768C265.241 151.185 264.76 151.73 264.42 152.403C264.08 153.077 263.91 153.802 263.91 154.578V156.069C263.91 157.121 264.093 158.016 264.459 158.753C264.831 159.484 265.347 160.043 266.008 160.427C266.669 160.806 267.438 160.995 268.317 160.995C268.888 160.995 269.407 160.915 269.876 160.754C270.344 160.588 270.745 160.341 271.078 160.014C271.418 159.687 271.681 159.276 271.867 158.782L274.33 159.34C274.106 160.11 273.714 160.787 273.156 161.37C272.605 161.948 271.915 162.4 271.088 162.727C270.267 163.048 269.34 163.208 268.307 163.208ZM283.983 163.208C282.623 163.208 281.433 162.89 280.413 162.255C279.393 161.614 278.601 160.722 278.037 159.581C277.472 158.439 277.19 157.108 277.19 155.588C277.19 154.049 277.472 152.705 278.037 151.557C278.601 150.408 279.393 149.517 280.413 148.882C281.433 148.247 282.623 147.929 283.983 147.929C285.342 147.929 286.532 148.247 287.552 148.882C288.572 149.517 289.364 150.408 289.929 151.557C290.493 152.705 290.775 154.049 290.775 155.588C290.775 157.108 290.493 158.439 289.929 159.581C289.364 160.722 288.572 161.614 287.552 162.255C286.532 162.89 285.342 163.208 283.983 163.208ZM283.983 160.976C284.945 160.976 285.734 160.729 286.35 160.235C286.972 159.735 287.434 159.077 287.735 158.263C288.036 157.442 288.187 156.547 288.187 155.578C288.187 154.616 288.036 153.725 287.735 152.904C287.434 152.076 286.972 151.412 286.35 150.912C285.734 150.405 284.945 150.152 283.983 150.152C283.027 150.152 282.238 150.405 281.616 150.912C280.994 151.412 280.532 152.076 280.23 152.904C279.929 153.725 279.778 154.616 279.778 155.578C279.778 156.547 279.929 157.442 280.23 158.263C280.532 159.077 280.994 159.735 281.616 160.235C282.238 160.729 283.027 160.976 283.983 160.976Z" fill="black"/>
<path d="M509.218 1.36305C509.418 1.24276 509.483 0.982728 509.363 0.782246C509.243 0.581763 508.983 0.516754 508.782 0.637043L509.218 1.36305ZM295.423 128.653C295.223 128.773 295.158 129.033 295.278 129.233C295.398 129.434 295.658 129.499 295.859 129.379L295.423 128.653ZM214.014 178.485C214.215 178.365 214.28 178.105 214.159 177.904C214.039 177.704 213.779 177.639 213.579 177.759L214.014 178.485ZM0.782227 305.437C0.581745 305.557 0.516736 305.817 0.637025 306.018C0.757315 306.218 1.01735 306.283 1.21783 306.163L0.782227 305.437ZM1.2178 0.636995C1.01732 0.516705 0.757284 0.581714 0.636995 0.782197C0.516705 0.982679 0.581714 1.24272 0.782197 1.36301L1.2178 0.636995ZM214.141 129.379C214.342 129.499 214.602 129.434 214.722 129.233C214.843 129.033 214.778 128.773 214.577 128.653L214.141 129.379ZM296.422 177.759C296.221 177.639 295.961 177.704 295.841 177.904C295.72 178.105 295.785 178.365 295.986 178.485L296.422 177.759ZM508.782 306.163C508.983 306.283 509.243 306.218 509.363 306.018C509.483 305.817 509.418 305.557 509.218 305.437L508.782 306.163ZM508.782 0.637043L295.423 128.653L295.859 129.379L509.218 1.36305L508.782 0.637043ZM213.579 177.759L0.782227 305.437L1.21783 306.163L214.014 178.485L213.579 177.759ZM0.782197 1.36301L214.141 129.379L214.577 128.653L1.2178 0.636995L0.782197 1.36301ZM295.986 178.485L508.782 306.163L509.218 305.437L296.422 177.759L295.986 178.485Z" fill="black"/>
</g>
<rect x="0.576667" y="0.576667" width="508.847" height="305.647" rx="12.4233" stroke="black" stroke-width="0.846667" stroke-linejoin="round"/>
<defs>
<clipPath id="clip0_148_369">
<rect x="1" y="1" width="508" height="304.8" rx="12" fill="white"/>
</clipPath>
</defs>
</svg>
