<svg width="263" height="108" viewBox="0 0 263 108" fill="none" xmlns="http://www.w3.org/2000/svg">
<g clip-path="url(#clip0_148_436)">
<path d="M0 54.376V44.958C6.64816 44.958 12.0537 39.5113 12.0537 32.8125H21.4005C21.4005 44.7051 11.7985 54.376 0 54.376Z" fill="#C94277"/>
<path d="M21.4005 75.5305H12.0537C12.0537 68.8317 6.64816 63.385 0 63.385V53.967C11.8027 53.967 21.4005 63.6422 21.4005 75.5305Z" fill="#2C6E49"/>
<path d="M41.9935 54.376V44.958C35.3453 44.958 29.9398 39.5113 29.9398 32.8125H20.593C20.593 44.7051 30.195 54.376 41.9935 54.376Z" fill="#FFE900"/>
<path d="M20.5888 75.5305H29.9356C29.9356 68.8317 35.3411 63.385 41.9893 63.385V53.967C30.1866 53.967 20.5888 63.6422 20.5888 75.5305Z" fill="#F4743B"/>
<path d="M54.5786 39.25H61.5363L64.8792 55.2065L69.4564 39.4355H75.0418L79.3889 55.2065L82.7276 39.25H89.4092L82.4515 63.3218H76.2259L71.9709 47.458L67.6699 63.3218H61.5363L54.5786 39.25Z" fill="white"/>
<path d="M113.023 55.8049C112.596 58.5114 111.521 60.5645 109.797 61.9599C108.073 63.3595 105.563 64.0593 102.266 64.0593C98.3 64.0593 95.3169 62.9506 93.317 60.7373C91.3171 58.524 90.3214 55.3875 90.3214 51.3278C90.3214 49.3 90.61 47.4915 91.1916 45.9106C91.769 44.3297 92.589 42.9806 93.6392 41.8761C94.6935 40.7716 95.9486 39.9327 97.413 39.3635C98.8774 38.7944 100.497 38.512 102.266 38.512C105.927 38.512 108.68 39.5743 110.529 41.6948C112.375 43.8154 113.299 46.6736 113.299 50.2739V52.8581H96.731C96.7896 54.7931 97.2791 56.3108 98.1954 57.3984C99.1117 58.4903 100.484 59.0342 102.312 59.0342C104.844 59.0342 106.341 57.9591 106.797 55.8049H113.023ZM107.12 48.6086C107.12 46.9476 106.714 45.6576 105.906 44.7344C105.099 43.8111 103.839 43.3516 102.132 43.3516C101.279 43.3516 100.53 43.4907 99.8899 43.7648C99.2497 44.043 98.7058 44.4182 98.2665 44.8946C97.823 45.371 97.4799 45.9232 97.2373 46.5556C96.9904 47.1879 96.8565 47.8709 96.8273 48.6086H107.124H107.12Z" fill="white"/>
<path d="M117.236 30.3967H123.642V63.3216H117.236V30.3967Z" fill="white"/>
<path d="M128.491 30.3967H134.9V63.3216H128.491V30.3967Z" fill="white"/>
<path d="M139.704 39.2497H145.929V42.5717C146.875 41.1594 147.996 40.1266 149.293 39.4816C150.59 38.8366 151.941 38.512 153.343 38.512C156.058 38.512 158.071 39.2286 159.384 40.6578C160.694 42.0869 161.351 44.3381 161.351 47.4156V63.3258H154.945V48.2925C154.945 46.602 154.623 45.4511 153.983 44.8356C153.343 44.2201 152.489 43.9123 151.418 43.9123C150.594 43.9123 149.887 44.0346 149.289 44.2833C148.695 44.5278 148.138 44.8819 147.619 45.3457C147.193 45.7757 146.833 46.29 146.544 46.8886C146.255 47.4873 146.109 48.1407 146.109 48.8489V63.33H139.704V39.2581V39.2497Z" fill="white"/>
<path d="M187.759 55.8049C187.333 58.5114 186.257 60.5645 184.534 61.9599C182.81 63.3595 180.3 64.0593 177.007 64.0593C173.041 64.0593 170.057 62.9506 168.058 60.7373C166.058 58.524 165.058 55.3875 165.058 51.3278C165.058 49.3 165.346 47.4915 165.928 45.9106C166.505 44.3297 167.325 42.9806 168.376 41.8761C169.43 40.7716 170.685 39.9327 172.154 39.3635C173.618 38.7944 175.237 38.512 177.007 38.512C180.668 38.512 183.421 39.5743 185.266 41.6948C187.111 43.8154 188.036 46.6736 188.036 50.2739V52.8581H171.467C171.53 54.7931 172.016 56.3108 172.932 57.3984C173.848 58.4903 175.22 59.0342 177.053 59.0342C179.584 59.0342 181.082 57.9591 181.538 55.8049H187.764H187.759ZM181.856 48.6086C181.856 46.9476 181.45 45.6576 180.643 44.7344C179.835 43.8111 178.576 43.3516 176.865 43.3516C176.011 43.3516 175.262 43.4907 174.622 43.7648C173.982 44.043 173.438 44.4182 172.999 44.8946C172.555 45.371 172.212 45.9232 171.97 46.5556C171.727 47.1879 171.589 47.8709 171.559 48.6086H181.856Z" fill="white"/>
<path d="M196.55 55.67C196.763 57.0865 197.328 58.0055 198.244 58.4355C199.16 58.8655 200.257 59.0805 201.541 59.0805C203.068 59.0805 204.156 58.8908 204.813 58.503C205.47 58.1193 205.796 57.4954 205.796 56.6354C205.796 56.0199 205.591 55.4845 205.177 55.0208C204.767 54.5613 203.98 54.2366 202.821 54.0512L199.524 53.4989C196.625 53.0394 194.466 52.2468 193.048 51.1254C191.63 50.0041 190.918 48.3051 190.918 46.0286C190.918 44.8609 191.169 43.8154 191.671 42.8921C192.173 41.9689 192.885 41.1847 193.801 40.5397C194.717 39.8947 195.805 39.3931 197.073 39.0431C198.34 38.689 199.734 38.512 201.261 38.512C203.152 38.512 204.738 38.7059 206.022 39.0895C207.302 39.4732 208.348 39.9875 209.156 40.6325C209.963 41.2775 210.574 42.049 210.988 42.9385C211.398 43.8322 211.7 44.785 211.879 45.7967L206.16 46.5345C205.884 45.4258 205.403 44.6121 204.717 44.0894C204.03 43.5666 202.926 43.3053 201.399 43.3053C200.545 43.3053 199.834 43.3727 199.269 43.5118C198.704 43.6509 198.261 43.828 197.943 44.043C197.621 44.258 197.395 44.5025 197.257 44.7808C197.119 45.059 197.052 45.3204 197.052 45.5649C197.052 46.3321 197.286 46.8971 197.763 47.247C198.236 47.6011 199.16 47.9004 200.533 48.1449L203.554 48.6508C205.231 48.929 206.62 49.2832 207.716 49.7132C208.817 50.1432 209.691 50.6744 210.348 51.3025C211.005 51.9349 211.461 52.6768 211.72 53.5411C211.98 54.4011 212.11 55.4002 212.11 56.5384C212.11 58.8149 211.256 60.6361 209.545 62.002C207.834 63.3679 205.198 64.0551 201.629 64.0551C200.194 64.0551 198.83 63.9244 197.533 63.663C196.236 63.4016 195.077 62.9464 194.056 62.3013C193.035 61.6563 192.194 60.7963 191.537 59.7171C190.881 58.6421 190.508 57.2888 190.416 55.6574H196.55V55.67Z" fill="white"/>
<path d="M220.21 55.67C220.423 57.0865 220.988 58.0055 221.904 58.4355C222.82 58.8655 223.916 59.0805 225.201 59.0805C226.728 59.0805 227.816 58.8908 228.473 58.503C229.13 58.1193 229.456 57.4954 229.456 56.6354C229.456 56.0199 229.251 55.4845 228.837 55.0208C228.427 54.5613 227.64 54.2366 226.481 54.0512L223.184 53.4989C220.285 53.0394 218.126 52.2468 216.708 51.1254C215.289 50.0041 214.578 48.3051 214.578 46.0286C214.578 44.8609 214.829 43.8154 215.331 42.8921C215.833 41.9689 216.544 41.1847 217.461 40.5397C218.377 39.8947 219.465 39.3931 220.733 39.0431C222 38.689 223.393 38.512 224.921 38.512C226.812 38.512 228.397 38.7059 229.682 39.0895C230.962 39.4732 232.008 39.9875 232.816 40.6325C233.623 41.2775 234.234 42.049 234.648 42.9385C235.058 43.8322 235.359 44.785 235.539 45.7967L229.82 46.5345C229.544 45.4258 229.063 44.6121 228.376 44.0894C227.69 43.5666 226.586 43.3053 225.059 43.3053C224.205 43.3053 223.494 43.3727 222.929 43.5118C222.364 43.6509 221.921 43.828 221.603 44.043C221.281 44.258 221.055 44.5025 220.917 44.7808C220.779 45.059 220.712 45.3204 220.712 45.5649C220.712 46.3321 220.946 46.8971 221.423 47.247C221.896 47.6011 222.82 47.9004 224.193 48.1449L227.213 48.6508C228.891 48.929 230.28 49.2832 231.376 49.7132C232.477 50.1432 233.351 50.6744 234.008 51.3025C234.665 51.9349 235.121 52.6768 235.38 53.5411C235.64 54.4011 235.769 55.4002 235.769 56.5384C235.769 58.8149 234.916 60.6361 233.205 62.002C231.493 63.3679 228.858 64.0551 225.289 64.0551C223.854 64.0551 222.49 63.9244 221.193 63.663C219.896 63.4016 218.737 62.9464 217.716 62.3013C216.695 61.6563 215.854 60.7963 215.197 59.7171C214.54 58.6421 214.168 57.2888 214.076 55.6574H220.21V55.67Z" fill="white"/>
<path d="M54.5786 74.7253H61.5363L64.8792 90.6819L69.4564 74.9108H75.0418L79.3889 90.6819L82.7276 74.7253H89.4092L82.4515 98.7972H76.2259L71.9709 82.9334L67.6699 98.7972H61.5363L54.5786 74.7253Z" fill="white"/>
<path d="M102.404 99.5347C98.5594 99.5347 95.5846 98.426 93.4802 96.2127C91.3757 93.9995 90.3214 90.8334 90.3214 86.7147C90.3214 84.7459 90.6017 82.9711 91.1665 81.386C91.7313 79.8009 92.5388 78.4645 93.5931 77.3726C94.6475 76.2807 95.9194 75.4418 97.413 74.86C98.9066 74.2782 100.572 73.9832 102.4 73.9832C104.229 73.9832 105.94 74.274 107.433 74.86C108.927 75.446 110.203 76.2807 111.253 77.3726C112.308 78.4645 113.107 79.8009 113.655 81.386C114.203 82.9711 114.479 84.7459 114.479 86.7147C114.479 88.6834 114.194 90.5046 113.634 92.0855C113.069 93.6706 112.262 95.0154 111.207 96.12C110.153 97.2287 108.881 98.0719 107.387 98.6578C105.894 99.2396 104.229 99.5347 102.4 99.5347H102.404ZM102.404 94.3704C104.237 94.3704 105.601 93.7086 106.5 92.389C107.4 91.0695 107.852 89.1767 107.852 86.7189C107.852 84.2611 107.4 82.3851 106.5 81.0909C105.601 79.8009 104.237 79.1559 102.404 79.1559C100.572 79.1559 99.2079 79.8009 98.3084 81.0909C97.4088 82.3809 96.957 84.2569 96.957 86.7189C96.957 89.1809 97.4005 91.1075 98.2832 92.4143C99.166 93.7212 100.543 94.3747 102.4 94.3747L102.404 94.3704Z" fill="white"/>
<path d="M118.424 74.7252H124.65V78.0935C125.445 76.833 126.403 75.8887 127.533 75.2563C128.662 74.6282 129.851 74.312 131.102 74.312C131.712 74.312 132.214 74.3331 132.612 74.3795C133.009 74.4258 133.361 74.4806 133.666 74.5397L132.888 80.3953C132.156 80.2098 131.256 80.1171 130.189 80.1171C129.487 80.1171 128.817 80.2014 128.177 80.37C127.537 80.5386 126.955 80.8548 126.436 81.3143C125.888 81.8076 125.483 82.3598 125.223 82.9753C124.964 83.5908 124.834 84.219 124.834 84.8682V98.797H118.429V74.7252H118.424Z" fill="white"/>
<path d="M136.687 65.8723H142.959V83.1189L152.159 74.7254H159.573L150.879 83.0261L160.259 98.7972H153.347L146.297 86.6222L142.959 89.6659V98.7972H136.687V65.8723Z" fill="white"/>
<path d="M166.342 91.1413C166.556 92.5577 167.12 93.4768 168.037 93.9068C168.953 94.3368 170.049 94.5518 171.334 94.5518C172.861 94.5518 173.948 94.3621 174.605 93.9742C175.262 93.5906 175.589 92.9667 175.589 92.1067C175.589 91.4912 175.384 90.9558 174.969 90.492C174.559 90.0325 173.773 89.7079 172.614 89.5224L169.317 88.9702C166.418 88.5106 164.259 87.7181 162.84 86.5967C161.422 85.4753 160.711 83.7764 160.711 81.4999C160.711 80.3321 160.962 79.2866 161.468 78.3634C161.97 77.4401 162.681 76.656 163.598 76.011C164.514 75.366 165.606 74.8643 166.869 74.5102C168.137 74.1561 169.53 73.979 171.057 73.979C172.949 73.979 174.534 74.1729 175.819 74.5566C177.099 74.9402 178.145 75.4545 178.952 76.0995C179.76 76.7445 180.371 77.516 180.785 78.4055C181.195 79.2993 181.492 80.252 181.676 81.2638L175.957 82.0015C175.681 80.8928 175.199 80.0792 174.513 79.5564C173.827 79.0337 172.723 78.7723 171.195 78.7723C170.342 78.7723 169.631 78.8397 169.066 78.9789C168.501 79.118 168.058 79.295 167.74 79.51C167.417 79.725 167.192 79.9696 167.053 80.2478C166.915 80.526 166.848 80.7874 166.848 81.0319C166.848 81.7992 167.083 82.3599 167.56 82.714C168.032 83.0681 168.957 83.3674 170.329 83.612L173.35 84.1178C175.028 84.3961 176.417 84.7502 177.513 85.1802C178.609 85.6102 179.488 86.1414 180.145 86.7695C180.802 87.4019 181.258 88.1439 181.517 89.0081C181.776 89.8681 181.906 90.8672 181.906 92.0055C181.906 94.282 181.053 96.1032 179.341 97.4691C177.63 98.835 174.994 99.5221 171.426 99.5221C169.991 99.5221 168.627 99.3914 167.33 99.1301C166.033 98.8687 164.874 98.4134 163.853 97.7684C162.828 97.1234 161.991 96.2634 161.334 95.1841C160.677 94.1091 160.305 92.7559 160.213 91.1244H166.346L166.342 91.1413Z" fill="white"/>
<path d="M185.383 65.8723H191.788V77.7691C192.734 76.4791 193.834 75.5263 195.085 74.9108C196.336 74.2954 197.65 73.9876 199.022 73.9876C201.738 73.9876 203.75 74.7043 205.064 76.1334C206.373 77.5625 207.03 79.8137 207.03 82.8912V98.8014H200.625V83.7681C200.625 82.0776 200.303 80.9267 199.663 80.3112C199.022 79.6957 198.169 79.388 197.098 79.388C196.274 79.388 195.567 79.5102 194.968 79.7589C194.374 80.0077 193.818 80.3576 193.299 80.8213C192.872 81.2513 192.512 81.7656 192.224 82.3643C191.935 82.9629 191.788 83.6163 191.788 84.3246V98.8056H185.383V65.8807V65.8723Z" fill="white"/>
<path d="M222.82 99.5347C218.975 99.5347 216.001 98.426 213.896 96.2127C211.792 93.9995 210.737 90.8334 210.737 86.7147C210.737 84.7459 211.018 82.9711 211.582 81.386C212.147 79.8009 212.955 78.4645 214.009 77.3726C215.063 76.2807 216.335 75.4418 217.829 74.86C219.323 74.2782 220.988 73.9832 222.816 73.9832C224.644 73.9832 226.356 74.274 227.849 74.86C229.343 75.446 230.619 76.2807 231.669 77.3726C232.723 78.4645 233.523 79.8009 234.071 81.386C234.619 82.9711 234.895 84.7459 234.895 86.7147C234.895 88.6834 234.61 90.5046 234.05 92.0855C233.485 93.6706 232.677 95.0154 231.623 96.12C230.569 97.2287 229.297 98.0719 227.803 98.6578C226.31 99.2396 224.644 99.5347 222.816 99.5347H222.82ZM222.82 94.3704C224.653 94.3704 226.017 93.7086 226.916 92.389C227.816 91.0695 228.268 89.1767 228.268 86.7189C228.268 84.2611 227.816 82.3851 226.916 81.0909C226.017 79.8009 224.653 79.1559 222.82 79.1559C220.988 79.1559 219.624 79.8009 218.724 81.0909C217.825 82.3809 217.373 84.2569 217.373 86.7189C217.373 89.1809 217.816 91.1075 218.699 92.4143C219.582 93.7212 220.958 94.3747 222.82 94.3747V94.3704Z" fill="white"/>
<path d="M238.836 74.7253H245.062V77.9082C246.894 75.2944 249.392 73.9875 252.568 73.9875C255.743 73.9875 258.379 75.1258 260.027 77.3981C261.676 79.6746 262.5 82.7942 262.5 86.7612C262.5 88.6667 262.262 90.4036 261.789 91.9719C261.316 93.5401 260.63 94.8849 259.73 96.0063C258.831 97.1277 257.739 97.9962 256.459 98.6116C255.178 99.2271 253.726 99.5349 252.111 99.5349C250.923 99.5349 249.739 99.3199 248.564 98.8899C247.388 98.4599 246.283 97.5999 245.246 96.3056V107.743H238.84V74.7253H238.836ZM245.2 86.9467C245.2 88.515 245.329 89.767 245.589 90.7071C245.848 91.6473 246.267 92.4061 246.848 92.9921C247.459 93.5443 248.078 93.9069 248.702 94.0755C249.325 94.2441 249.961 94.3285 250.601 94.3285C251.304 94.3285 251.973 94.1893 252.614 93.9153C253.254 93.6371 253.81 93.1986 254.283 92.6C254.756 92.0014 255.128 91.2257 255.404 90.2729C255.68 89.3202 255.814 88.1693 255.814 86.816C255.814 85.4628 255.685 84.2191 255.425 83.2664C255.166 82.3136 254.806 81.5379 254.35 80.9393C253.894 80.3407 253.35 79.9107 252.727 79.6493C252.099 79.3879 251.438 79.2572 250.735 79.2572C249.94 79.2572 249.254 79.3668 248.677 79.5818C248.095 79.7968 247.534 80.1341 246.982 80.5978C246.371 81.1838 245.919 81.9216 245.631 82.8111C245.342 83.7048 245.196 84.8388 245.196 86.2216V86.9594L245.2 86.9467Z" fill="white"/>
<path d="M67.8623 24.2123C67.5109 24.3135 67.1511 24.3852 66.7871 24.4231C66.4189 24.461 66.0507 24.4821 65.6993 24.4821C65.0466 24.4821 64.5069 24.3051 64.101 23.9552C63.7036 23.6137 63.4986 22.9265 63.4986 21.9147V12.6739H68.1468V8.09557H63.4986V2.66992H57.7541V8.09557H54.5786V12.6739H57.7541V22.0328C57.7541 24.5917 58.3106 26.4424 59.4109 27.5343C60.5071 28.6262 62.2057 29.1827 64.4609 29.1827C65.1094 29.1827 65.7997 29.1363 66.5151 29.0435C67.2347 28.9508 67.9795 28.7864 68.7284 28.5503L68.8665 28.5081L68.0297 24.1702L67.8623 24.2207V24.2123Z" fill="white"/>
<path d="M82.121 7.46753C80.9411 7.46753 79.7947 7.73733 78.7195 8.2643C77.7656 8.73225 76.9079 9.43627 76.1631 10.3553V0.600098H70.4187V28.7865H76.1631V16.3712C76.1631 15.7978 76.2803 15.2666 76.5146 14.7818C76.7489 14.2928 77.0459 13.867 77.3848 13.5255C77.8074 13.1503 78.2676 12.8594 78.753 12.6571C79.2341 12.459 79.8198 12.3578 80.4935 12.3578C81.3511 12.3578 82.0415 12.6065 82.5519 13.0913C83.0582 13.5761 83.3134 14.5247 83.3134 15.899V28.7823H89.0578V15.157C89.0578 12.5264 88.4846 10.5661 87.3508 9.33088C86.2128 8.09145 84.4556 7.46331 82.121 7.46331V7.46753Z" fill="white"/>
<path d="M111.634 17.5811C111.634 14.512 110.831 12.0332 109.249 10.2162C107.663 8.39077 105.27 7.46753 102.137 7.46753C100.626 7.46753 99.2246 7.71204 97.9736 8.20107C96.7185 8.69009 95.6223 9.41941 94.7186 10.368C93.8149 11.3165 93.1078 12.4843 92.6099 13.8375C92.1162 15.1908 91.8652 16.7506 91.8652 18.479C91.8652 21.9401 92.7312 24.6551 94.4424 26.5479C96.1578 28.4492 98.7434 29.4104 102.132 29.4104C104.944 29.4104 107.124 28.7991 108.605 27.5977C110.09 26.392 111.027 24.6087 111.395 22.2858L111.425 22.0961H105.839L105.81 22.2226C105.438 23.9721 104.249 24.8237 102.174 24.8237C100.681 24.8237 99.5509 24.3768 98.8104 23.4957C98.0908 22.6357 97.6891 21.4343 97.618 19.9208H111.63V17.5726L111.634 17.5811ZM97.7017 16.0128C97.7393 15.4732 97.8481 14.9631 98.0322 14.4994C98.2288 13.9893 98.5133 13.534 98.869 13.1461C99.2246 12.7625 99.6723 12.4505 100.191 12.2271C100.71 12.0037 101.329 11.8898 102.024 11.8898C103.413 11.8898 104.45 12.265 105.099 13.007C105.726 13.7237 106.057 14.7355 106.082 16.0128H97.7017Z" fill="white"/>
</g>
<defs>
<clipPath id="clip0_148_436">
<rect width="262.5" height="107.143" fill="white" transform="translate(0 0.600098)"/>
</clipPath>
</defs>
</svg>
