<svg width="76" height="20" viewBox="0 0 76 20" fill="none" xmlns="http://www.w3.org/2000/svg">
<path d="M0.530273 10.0748V6.64422C2.96924 6.64422 4.95379 4.65967 4.95379 2.2207H8.38434C8.38434 6.55182 4.8607 10.0748 0.530273 10.0748Z" fill="#C94277"/>
<path d="M8.38434 17.7798H4.95379C4.95379 15.3409 2.96924 13.3563 0.530273 13.3563V9.92578C4.86139 9.92578 8.38434 13.4494 8.38434 17.7798Z" fill="#2C6E49"/>
<path d="M15.9405 10.0748V6.64422C13.5015 6.64422 11.517 4.65967 11.517 2.2207H8.08643C8.08643 6.55182 11.6101 10.0748 15.9405 10.0748Z" fill="#FFE900"/>
<path d="M8.08691 17.7798H11.5175C11.5175 15.3409 13.502 13.3563 15.941 13.3563V9.92578C11.6099 9.92578 8.08691 13.4494 8.08691 17.7798Z" fill="#F4743B"/>
<path d="M21.6842 7.39206H19.2397V4.14286H21.6842V0H25.8574V4.14286H29.4342V7.39206H25.8574V14.5759C25.8574 15.3909 26.0257 15.9426 26.3643 16.2301C26.7021 16.5184 27.1393 16.6625 27.6758 16.6625C27.9537 16.6625 28.2371 16.6473 28.5253 16.6177C28.8129 16.588 29.0963 16.5335 29.3749 16.4535L29.9713 19.5235C29.3949 19.7021 28.8336 19.8262 28.2874 19.8958C27.7406 19.9655 27.2193 19.9999 26.7228 19.9999C25.0134 19.9999 23.7467 19.5931 22.9227 18.778C22.098 17.9637 21.6856 16.5921 21.6856 14.6648V7.39206H21.6842Z" fill="#211E1D"/>
<path d="M30.3599 4.14258H34.8903L37.0665 14.4556L40.0475 4.26187H43.6842L46.5162 14.4556L48.6918 4.14258H53.0436L48.5125 19.7018H44.4586L41.6865 9.44804L38.8849 19.7018H34.8909L30.3606 4.14258H30.3599Z" fill="#211E1D"/>
<path d="M53.1011 4.14258H57.6315L59.8077 14.4556L62.7887 4.26187H66.4254L69.2574 14.4556L71.433 4.14258H75.7848L71.2537 19.7018H67.1998L64.4278 9.44804L61.6261 19.7018H57.6322L53.1018 4.14258H53.1011Z" fill="#211E1D"/>
</svg>
