<svg width="36" height="37" viewBox="0 0 36 37" fill="none" xmlns="http://www.w3.org/2000/svg">
<path d="M18 3.875C15.1075 3.875 12.2799 4.73274 9.87479 6.33976C7.46972 7.94677 5.5952 10.2309 4.48827 12.9033C3.38134 15.5756 3.09171 18.5162 3.65602 21.3532C4.22033 24.1902 5.61323 26.7961 7.65857 28.8414C9.70391 30.8868 12.3098 32.2797 15.1468 32.844C17.9838 33.4083 20.9244 33.1187 23.5968 32.0117C26.2691 30.9048 28.5532 29.0303 30.1602 26.6252C31.7673 24.2201 32.625 21.3926 32.625 18.5C32.6209 14.6225 31.0788 10.9049 28.3369 8.16309C25.5951 5.42125 21.8775 3.87909 18 3.875ZM23.2959 22.2041C23.4005 22.3086 23.4834 22.4327 23.5399 22.5692C23.5965 22.7058 23.6256 22.8522 23.6256 23C23.6256 23.1478 23.5965 23.2942 23.5399 23.4308C23.4834 23.5673 23.4005 23.6914 23.2959 23.7959C23.1914 23.9005 23.0673 23.9834 22.9308 24.0399C22.7942 24.0965 22.6478 24.1256 22.5 24.1256C22.3522 24.1256 22.2058 24.0965 22.0692 24.0399C21.9327 23.9834 21.8086 23.9005 21.7041 23.7959L18 20.0905L14.2959 23.7959C14.1914 23.9005 14.0673 23.9834 13.9308 24.0399C13.7942 24.0965 13.6478 24.1256 13.5 24.1256C13.3522 24.1256 13.2058 24.0965 13.0692 24.0399C12.9327 23.9834 12.8086 23.9005 12.7041 23.7959C12.5995 23.6914 12.5166 23.5673 12.4601 23.4308C12.4035 23.2942 12.3744 23.1478 12.3744 23C12.3744 22.8522 12.4035 22.7058 12.4601 22.5692C12.5166 22.4327 12.5995 22.3086 12.7041 22.2041L16.4095 18.5L12.7041 14.7959C12.493 14.5848 12.3744 14.2985 12.3744 14C12.3744 13.7015 12.493 13.4152 12.7041 13.2041C12.9152 12.993 13.2015 12.8744 13.5 12.8744C13.7985 12.8744 14.0848 12.993 14.2959 13.2041L18 16.9095L21.7041 13.2041C21.8086 13.0995 21.9327 13.0166 22.0692 12.9601C22.2058 12.9035 22.3522 12.8744 22.5 12.8744C22.6478 12.8744 22.7942 12.9035 22.9308 12.9601C23.0673 13.0166 23.1914 13.0995 23.2959 13.2041C23.4005 13.3086 23.4834 13.4327 23.5399 13.5692C23.5965 13.7058 23.6256 13.8522 23.6256 14C23.6256 14.1478 23.5965 14.2942 23.5399 14.4308C23.4834 14.5673 23.4005 14.6914 23.2959 14.7959L19.5905 18.5L23.2959 22.2041Z" fill="#211E1D"/>
</svg>
